<svg xmlns="http://www.w3.org/2000/svg" width="1920" height="1080" viewBox="0 0 1920 1080">
  <rect width="1920" height="1080" fill="hsl(124, 44%, 93%)"/>
  <circle cx="0" cy="0" r="42" fill="none" stroke="hsl(124, 48%, 52%)" stroke-width="6" opacity="0.42"/><circle cx="80" cy="150" r="43" fill="none" stroke="hsl(137, 48%, 52%)" stroke-width="6" opacity="0.42"/><circle cx="0" cy="300" r="44" fill="none" stroke="hsl(150, 48%, 52%)" stroke-width="6" opacity="0.42"/><circle cx="80" cy="450" r="45" fill="none" stroke="hsl(163, 48%, 52%)" stroke-width="6" opacity="0.42"/><circle cx="0" cy="600" r="46" fill="none" stroke="hsl(176, 48%, 52%)" stroke-width="6" opacity="0.42"/><circle cx="80" cy="750" r="47" fill="none" stroke="hsl(189, 48%, 52%)" stroke-width="6" opacity="0.42"/><circle cx="0" cy="900" r="48" fill="none" stroke="hsl(202, 48%, 52%)" stroke-width="6" opacity="0.42"/><circle cx="80" cy="1050" r="49" fill="none" stroke="hsl(215, 48%, 52%)" stroke-width="6" opacity="0.42"/><circle cx="160" cy="0" r="43" fill="none" stroke="hsl(133, 48%, 52%)" stroke-width="6" opacity="0.42"/><circle cx="240" cy="150" r="44" fill="none" stroke="hsl(146, 48%, 52%)" stroke-width="6" opacity="0.42"/><circle cx="160" cy="300" r="45" fill="none" stroke="hsl(159, 48%, 52%)" stroke-width="6" opacity="0.42"/><circle cx="240" cy="450" r="46" fill="none" stroke="hsl(172, 48%, 52%)" stroke-width="6" opacity="0.42"/><circle cx="160" cy="600" r="47" fill="none" stroke="hsl(185, 48%, 52%)" stroke-width="6" opacity="0.42"/><circle cx="240" cy="750" r="48" fill="none" stroke="hsl(198, 48%, 52%)" stroke-width="6" opacity="0.42"/><circle cx="160" cy="900" r="49" fill="none" stroke="hsl(211, 48%, 52%)" stroke-width="6" opacity="0.42"/><circle cx="240" cy="1050" r="50" fill="none" stroke="hsl(224, 48%, 52%)" stroke-width="6" opacity="0.42"/><circle cx="320" cy="0" r="44" fill="none" stroke="hsl(142, 48%, 52%)" stroke-width="6" opacity="0.42"/><circle cx="400" cy="150" r="45" fill="none" stroke="hsl(155, 48%, 52%)" stroke-width="6" opacity="0.42"/><circle cx="320" cy="300" r="46" fill="none" stroke="hsl(168, 48%, 52%)" stroke-width="6" opacity="0.42"/><circle cx="400" cy="450" r="47" fill="none" stroke="hsl(181, 48%, 52%)" stroke-width="6" opacity="0.42"/><circle cx="320" cy="600" r="48" fill="none" stroke="hsl(194, 48%, 52%)" stroke-width="6" opacity="0.42"/><circle cx="400" cy="750" r="49" fill="none" stroke="hsl(207, 48%, 52%)" stroke-width="6" opacity="0.42"/><circle cx="320" cy="900" r="50" fill="none" stroke="hsl(220, 48%, 52%)" stroke-width="6" opacity="0.42"/><circle cx="400" cy="1050" r="51" fill="none" stroke="hsl(233, 48%, 52%)" stroke-width="6" opacity="0.42"/><circle cx="480" cy="0" r="45" fill="none" stroke="hsl(151, 48%, 52%)" stroke-width="6" opacity="0.42"/><circle cx="560" cy="150" r="46" fill="none" stroke="hsl(164, 48%, 52%)" stroke-width="6" opacity="0.42"/><circle cx="480" cy="300" r="47" fill="none" stroke="hsl(177, 48%, 52%)" stroke-width="6" opacity="0.42"/><circle cx="560" cy="450" r="48" fill="none" stroke="hsl(190, 48%, 52%)" stroke-width="6" opacity="0.42"/><circle cx="480" cy="600" r="49" fill="none" stroke="hsl(203, 48%, 52%)" stroke-width="6" opacity="0.42"/><circle cx="560" cy="750" r="50" fill="none" stroke="hsl(216, 48%, 52%)" stroke-width="6" opacity="0.42"/><circle cx="480" cy="900" r="51" fill="none" stroke="hsl(229, 48%, 52%)" stroke-width="6" opacity="0.42"/><circle cx="560" cy="1050" r="52" fill="none" stroke="hsl(242, 48%, 52%)" stroke-width="6" opacity="0.42"/><circle cx="640" cy="0" r="46" fill="none" stroke="hsl(160, 48%, 52%)" stroke-width="6" opacity="0.42"/><circle cx="720" cy="150" r="47" fill="none" stroke="hsl(173, 48%, 52%)" stroke-width="6" opacity="0.42"/><circle cx="640" cy="300" r="48" fill="none" stroke="hsl(186, 48%, 52%)" stroke-width="6" opacity="0.42"/><circle cx="720" cy="450" r="49" fill="none" stroke="hsl(199, 48%, 52%)" stroke-width="6" opacity="0.42"/><circle cx="640" cy="600" r="50" fill="none" stroke="hsl(212, 48%, 52%)" stroke-width="6" opacity="0.42"/><circle cx="720" cy="750" r="51" fill="none" stroke="hsl(225, 48%, 52%)" stroke-width="6" opacity="0.42"/><circle cx="640" cy="900" r="52" fill="none" stroke="hsl(238, 48%, 52%)" stroke-width="6" opacity="0.42"/><circle cx="720" cy="1050" r="53" fill="none" stroke="hsl(251, 48%, 52%)" stroke-width="6" opacity="0.42"/><circle cx="800" cy="0" r="47" fill="none" stroke="hsl(169, 48%, 52%)" stroke-width="6" opacity="0.42"/><circle cx="880" cy="150" r="48" fill="none" stroke="hsl(182, 48%, 52%)" stroke-width="6" opacity="0.42"/><circle cx="800" cy="300" r="49" fill="none" stroke="hsl(195, 48%, 52%)" stroke-width="6" opacity="0.42"/><circle cx="880" cy="450" r="50" fill="none" stroke="hsl(208, 48%, 52%)" stroke-width="6" opacity="0.42"/><circle cx="800" cy="600" r="51" fill="none" stroke="hsl(221, 48%, 52%)" stroke-width="6" opacity="0.42"/><circle cx="880" cy="750" r="52" fill="none" stroke="hsl(234, 48%, 52%)" stroke-width="6" opacity="0.42"/><circle cx="800" cy="900" r="53" fill="none" stroke="hsl(247, 48%, 52%)" stroke-width="6" opacity="0.42"/><circle cx="880" cy="1050" r="54" fill="none" stroke="hsl(260, 48%, 52%)" stroke-width="6" opacity="0.42"/><circle cx="960" cy="0" r="48" fill="none" stroke="hsl(178, 48%, 52%)" stroke-width="6" opacity="0.42"/><circle cx="1040" cy="150" r="49" fill="none" stroke="hsl(191, 48%, 52%)" stroke-width="6" opacity="0.42"/><circle cx="960" cy="300" r="50" fill="none" stroke="hsl(204, 48%, 52%)" stroke-width="6" opacity="0.42"/><circle cx="1040" cy="450" r="51" fill="none" stroke="hsl(217, 48%, 52%)" stroke-width="6" opacity="0.42"/><circle cx="960" cy="600" r="52" fill="none" stroke="hsl(230, 48%, 52%)" stroke-width="6" opacity="0.42"/><circle cx="1040" cy="750" r="53" fill="none" stroke="hsl(243, 48%, 52%)" stroke-width="6" opacity="0.42"/><circle cx="960" cy="900" r="54" fill="none" stroke="hsl(256, 48%, 52%)" stroke-width="6" opacity="0.42"/><circle cx="1040" cy="1050" r="55" fill="none" stroke="hsl(269, 48%, 52%)" stroke-width="6" opacity="0.42"/><circle cx="1120" cy="0" r="49" fill="none" stroke="hsl(187, 48%, 52%)" stroke-width="6" opacity="0.42"/><circle cx="1200" cy="150" r="50" fill="none" stroke="hsl(200, 48%, 52%)" stroke-width="6" opacity="0.42"/><circle cx="1120" cy="300" r="51" fill="none" stroke="hsl(213, 48%, 52%)" stroke-width="6" opacity="0.42"/><circle cx="1200" cy="450" r="52" fill="none" stroke="hsl(226, 48%, 52%)" stroke-width="6" opacity="0.42"/><circle cx="1120" cy="600" r="53" fill="none" stroke="hsl(239, 48%, 52%)" stroke-width="6" opacity="0.42"/><circle cx="1200" cy="750" r="54" fill="none" stroke="hsl(252, 48%, 52%)" stroke-width="6" opacity="0.42"/><circle cx="1120" cy="900" r="55" fill="none" stroke="hsl(265, 48%, 52%)" stroke-width="6" opacity="0.42"/><circle cx="1200" cy="1050" r="56" fill="none" stroke="hsl(278, 48%, 52%)" stroke-width="6" opacity="0.42"/><circle cx="1280" cy="0" r="50" fill="none" stroke="hsl(196, 48%, 52%)" stroke-width="6" opacity="0.42"/><circle cx="1360" cy="150" r="51" fill="none" stroke="hsl(209, 48%, 52%)" stroke-width="6" opacity="0.42"/><circle cx="1280" cy="300" r="52" fill="none" stroke="hsl(222, 48%, 52%)" stroke-width="6" opacity="0.42"/><circle cx="1360" cy="450" r="53" fill="none" stroke="hsl(235, 48%, 52%)" stroke-width="6" opacity="0.42"/><circle cx="1280" cy="600" r="54" fill="none" stroke="hsl(248, 48%, 52%)" stroke-width="6" opacity="0.42"/><circle cx="1360" cy="750" r="55" fill="none" stroke="hsl(261, 48%, 52%)" stroke-width="6" opacity="0.42"/><circle cx="1280" cy="900" r="56" fill="none" stroke="hsl(274, 48%, 52%)" stroke-width="6" opacity="0.42"/><circle cx="1360" cy="1050" r="57" fill="none" stroke="hsl(287, 48%, 52%)" stroke-width="6" opacity="0.42"/><circle cx="1440" cy="0" r="51" fill="none" stroke="hsl(205, 48%, 52%)" stroke-width="6" opacity="0.42"/><circle cx="1520" cy="150" r="52" fill="none" stroke="hsl(218, 48%, 52%)" stroke-width="6" opacity="0.42"/><circle cx="1440" cy="300" r="53" fill="none" stroke="hsl(231, 48%, 52%)" stroke-width="6" opacity="0.42"/><circle cx="1520" cy="450" r="54" fill="none" stroke="hsl(244, 48%, 52%)" stroke-width="6" opacity="0.42"/><circle cx="1440" cy="600" r="55" fill="none" stroke="hsl(257, 48%, 52%)" stroke-width="6" opacity="0.42"/><circle cx="1520" cy="750" r="56" fill="none" stroke="hsl(270, 48%, 52%)" stroke-width="6" opacity="0.42"/><circle cx="1440" cy="900" r="57" fill="none" stroke="hsl(283, 48%, 52%)" stroke-width="6" opacity="0.42"/><circle cx="1520" cy="1050" r="58" fill="none" stroke="hsl(296, 48%, 52%)" stroke-width="6" opacity="0.42"/><circle cx="1600" cy="0" r="52" fill="none" stroke="hsl(214, 48%, 52%)" stroke-width="6" opacity="0.42"/><circle cx="1680" cy="150" r="53" fill="none" stroke="hsl(227, 48%, 52%)" stroke-width="6" opacity="0.42"/><circle cx="1600" cy="300" r="54" fill="none" stroke="hsl(240, 48%, 52%)" stroke-width="6" opacity="0.42"/><circle cx="1680" cy="450" r="55" fill="none" stroke="hsl(253, 48%, 52%)" stroke-width="6" opacity="0.42"/><circle cx="1600" cy="600" r="56" fill="none" stroke="hsl(266, 48%, 52%)" stroke-width="6" opacity="0.42"/><circle cx="1680" cy="750" r="57" fill="none" stroke="hsl(279, 48%, 52%)" stroke-width="6" opacity="0.42"/><circle cx="1600" cy="900" r="58" fill="none" stroke="hsl(292, 48%, 52%)" stroke-width="6" opacity="0.42"/><circle cx="1680" cy="1050" r="59" fill="none" stroke="hsl(305, 48%, 52%)" stroke-width="6" opacity="0.42"/><circle cx="1760" cy="0" r="53" fill="none" stroke="hsl(223, 48%, 52%)" stroke-width="6" opacity="0.42"/><circle cx="1840" cy="150" r="54" fill="none" stroke="hsl(236, 48%, 52%)" stroke-width="6" opacity="0.42"/><circle cx="1760" cy="300" r="55" fill="none" stroke="hsl(249, 48%, 52%)" stroke-width="6" opacity="0.42"/><circle cx="1840" cy="450" r="56" fill="none" stroke="hsl(262, 48%, 52%)" stroke-width="6" opacity="0.42"/><circle cx="1760" cy="600" r="57" fill="none" stroke="hsl(275, 48%, 52%)" stroke-width="6" opacity="0.42"/><circle cx="1840" cy="750" r="58" fill="none" stroke="hsl(288, 48%, 52%)" stroke-width="6" opacity="0.42"/><circle cx="1760" cy="900" r="59" fill="none" stroke="hsl(301, 48%, 52%)" stroke-width="6" opacity="0.42"/><circle cx="1840" cy="1050" r="38" fill="none" stroke="hsl(314, 48%, 52%)" stroke-width="6" opacity="0.42"/><circle cx="1920" cy="0" r="54" fill="none" stroke="hsl(232, 48%, 52%)" stroke-width="6" opacity="0.42"/><circle cx="2000" cy="150" r="55" fill="none" stroke="hsl(245, 48%, 52%)" stroke-width="6" opacity="0.42"/><circle cx="1920" cy="300" r="56" fill="none" stroke="hsl(258, 48%, 52%)" stroke-width="6" opacity="0.42"/><circle cx="2000" cy="450" r="57" fill="none" stroke="hsl(271, 48%, 52%)" stroke-width="6" opacity="0.42"/><circle cx="1920" cy="600" r="58" fill="none" stroke="hsl(284, 48%, 52%)" stroke-width="6" opacity="0.42"/><circle cx="2000" cy="750" r="59" fill="none" stroke="hsl(297, 48%, 52%)" stroke-width="6" opacity="0.42"/><circle cx="1920" cy="900" r="38" fill="none" stroke="hsl(310, 48%, 52%)" stroke-width="6" opacity="0.42"/><circle cx="2000" cy="1050" r="39" fill="none" stroke="hsl(323, 48%, 52%)" stroke-width="6" opacity="0.42"/>
</svg>
