<svg xmlns="http://www.w3.org/2000/svg" viewBox="0 0 1200 750" role="img" aria-labelledby="title desc">
  <title id="title">Sales Enablement Kit cover</title>
  <desc id="desc">A proposal dashboard with profile, prospect, and case study panels.</desc>
  <rect width="1200" height="750" fill="#f6f8fb"/>
  <rect x="70" y="70" width="1060" height="610" rx="18" fill="#ffffff" stroke="#d9dfeb" stroke-width="4"/>
  <rect x="110" y="118" width="980" height="82" rx="12" fill="#17202a"/>
  <text x="145" y="171" fill="#ffffff" font-family="Arial, sans-serif" font-size="36" font-weight="700">Sales Enablement Kit</text>
  <rect x="120" y="250" width="280" height="330" rx="14" fill="#eef6ff" stroke="#9fc4e8" stroke-width="3"/>
  <rect x="460" y="250" width="280" height="330" rx="14" fill="#f0faf4" stroke="#9dd0b3" stroke-width="3"/>
  <rect x="800" y="250" width="280" height="330" rx="14" fill="#fff7e8" stroke="#e0bd74" stroke-width="3"/>
  <text x="155" y="315" fill="#075da8" font-family="Arial, sans-serif" font-size="30" font-weight="700">Proposal</text>
  <text x="495" y="315" fill="#17643a" font-family="Arial, sans-serif" font-size="30" font-weight="700">Profile</text>
  <text x="835" y="315" fill="#8a5a00" font-family="Arial, sans-serif" font-size="30" font-weight="700">Prospects</text>
  <g fill="#5d6875" font-family="Arial, sans-serif" font-size="24">
    <text x="155" y="375">Fixed scope</text>
    <text x="155" y="423">Price proof</text>
    <text x="155" y="471">Acceptance rule</text>
    <text x="495" y="375">Truthful samples</text>
    <text x="495" y="423">No false claims</text>
    <text x="495" y="471">Portfolio page</text>
    <text x="835" y="375">Public facts</text>
    <text x="835" y="423">Fit reason</text>
    <text x="835" y="471">Opt-out respect</text>
  </g>
  <path d="M168 620h864" stroke="#d9dfeb" stroke-width="5" stroke-linecap="round"/>
  <circle cx="260" cy="620" r="18" fill="#075da8"/>
  <circle cx="600" cy="620" r="18" fill="#17643a"/>
  <circle cx="940" cy="620" r="18" fill="#8a5a00"/>
</svg>
