<svg xmlns="http://www.w3.org/2000/svg" width="1920" height="1080" viewBox="0 0 1920 1080">
  <rect width="1920" height="1080" fill="hsl(217, 44%, 93%)"/>
  <circle cx="0" cy="0" r="45" fill="none" stroke="hsl(217, 48%, 52%)" stroke-width="6" opacity="0.42"/><circle cx="80" cy="150" r="46" fill="none" stroke="hsl(230, 48%, 52%)" stroke-width="6" opacity="0.42"/><circle cx="0" cy="300" r="47" fill="none" stroke="hsl(243, 48%, 52%)" stroke-width="6" opacity="0.42"/><circle cx="80" cy="450" r="48" fill="none" stroke="hsl(256, 48%, 52%)" stroke-width="6" opacity="0.42"/><circle cx="0" cy="600" r="49" fill="none" stroke="hsl(269, 48%, 52%)" stroke-width="6" opacity="0.42"/><circle cx="80" cy="750" r="50" fill="none" stroke="hsl(282, 48%, 52%)" stroke-width="6" opacity="0.42"/><circle cx="0" cy="900" r="51" fill="none" stroke="hsl(295, 48%, 52%)" stroke-width="6" opacity="0.42"/><circle cx="80" cy="1050" r="52" fill="none" stroke="hsl(308, 48%, 52%)" stroke-width="6" opacity="0.42"/><circle cx="160" cy="0" r="46" fill="none" stroke="hsl(226, 48%, 52%)" stroke-width="6" opacity="0.42"/><circle cx="240" cy="150" r="47" fill="none" stroke="hsl(239, 48%, 52%)" stroke-width="6" opacity="0.42"/><circle cx="160" cy="300" r="48" fill="none" stroke="hsl(252, 48%, 52%)" stroke-width="6" opacity="0.42"/><circle cx="240" cy="450" r="49" fill="none" stroke="hsl(265, 48%, 52%)" stroke-width="6" opacity="0.42"/><circle cx="160" cy="600" r="50" fill="none" stroke="hsl(278, 48%, 52%)" stroke-width="6" opacity="0.42"/><circle cx="240" cy="750" r="51" fill="none" stroke="hsl(291, 48%, 52%)" stroke-width="6" opacity="0.42"/><circle cx="160" cy="900" r="52" fill="none" stroke="hsl(304, 48%, 52%)" stroke-width="6" opacity="0.42"/><circle cx="240" cy="1050" r="53" fill="none" stroke="hsl(317, 48%, 52%)" stroke-width="6" opacity="0.42"/><circle cx="320" cy="0" r="47" fill="none" stroke="hsl(235, 48%, 52%)" stroke-width="6" opacity="0.42"/><circle cx="400" cy="150" r="48" fill="none" stroke="hsl(248, 48%, 52%)" stroke-width="6" opacity="0.42"/><circle cx="320" cy="300" r="49" fill="none" stroke="hsl(261, 48%, 52%)" stroke-width="6" opacity="0.42"/><circle cx="400" cy="450" r="50" fill="none" stroke="hsl(274, 48%, 52%)" stroke-width="6" opacity="0.42"/><circle cx="320" cy="600" r="51" fill="none" stroke="hsl(287, 48%, 52%)" stroke-width="6" opacity="0.42"/><circle cx="400" cy="750" r="52" fill="none" stroke="hsl(300, 48%, 52%)" stroke-width="6" opacity="0.42"/><circle cx="320" cy="900" r="53" fill="none" stroke="hsl(313, 48%, 52%)" stroke-width="6" opacity="0.42"/><circle cx="400" cy="1050" r="54" fill="none" stroke="hsl(326, 48%, 52%)" stroke-width="6" opacity="0.42"/><circle cx="480" cy="0" r="48" fill="none" stroke="hsl(244, 48%, 52%)" stroke-width="6" opacity="0.42"/><circle cx="560" cy="150" r="49" fill="none" stroke="hsl(257, 48%, 52%)" stroke-width="6" opacity="0.42"/><circle cx="480" cy="300" r="50" fill="none" stroke="hsl(270, 48%, 52%)" stroke-width="6" opacity="0.42"/><circle cx="560" cy="450" r="51" fill="none" stroke="hsl(283, 48%, 52%)" stroke-width="6" opacity="0.42"/><circle cx="480" cy="600" r="52" fill="none" stroke="hsl(296, 48%, 52%)" stroke-width="6" opacity="0.42"/><circle cx="560" cy="750" r="53" fill="none" stroke="hsl(309, 48%, 52%)" stroke-width="6" opacity="0.42"/><circle cx="480" cy="900" r="54" fill="none" stroke="hsl(322, 48%, 52%)" stroke-width="6" opacity="0.42"/><circle cx="560" cy="1050" r="55" fill="none" stroke="hsl(335, 48%, 52%)" stroke-width="6" opacity="0.42"/><circle cx="640" cy="0" r="49" fill="none" stroke="hsl(253, 48%, 52%)" stroke-width="6" opacity="0.42"/><circle cx="720" cy="150" r="50" fill="none" stroke="hsl(266, 48%, 52%)" stroke-width="6" opacity="0.42"/><circle cx="640" cy="300" r="51" fill="none" stroke="hsl(279, 48%, 52%)" stroke-width="6" opacity="0.42"/><circle cx="720" cy="450" r="52" fill="none" stroke="hsl(292, 48%, 52%)" stroke-width="6" opacity="0.42"/><circle cx="640" cy="600" r="53" fill="none" stroke="hsl(305, 48%, 52%)" stroke-width="6" opacity="0.42"/><circle cx="720" cy="750" r="54" fill="none" stroke="hsl(318, 48%, 52%)" stroke-width="6" opacity="0.42"/><circle cx="640" cy="900" r="55" fill="none" stroke="hsl(331, 48%, 52%)" stroke-width="6" opacity="0.42"/><circle cx="720" cy="1050" r="56" fill="none" stroke="hsl(344, 48%, 52%)" stroke-width="6" opacity="0.42"/><circle cx="800" cy="0" r="50" fill="none" stroke="hsl(262, 48%, 52%)" stroke-width="6" opacity="0.42"/><circle cx="880" cy="150" r="51" fill="none" stroke="hsl(275, 48%, 52%)" stroke-width="6" opacity="0.42"/><circle cx="800" cy="300" r="52" fill="none" stroke="hsl(288, 48%, 52%)" stroke-width="6" opacity="0.42"/><circle cx="880" cy="450" r="53" fill="none" stroke="hsl(301, 48%, 52%)" stroke-width="6" opacity="0.42"/><circle cx="800" cy="600" r="54" fill="none" stroke="hsl(314, 48%, 52%)" stroke-width="6" opacity="0.42"/><circle cx="880" cy="750" r="55" fill="none" stroke="hsl(327, 48%, 52%)" stroke-width="6" opacity="0.42"/><circle cx="800" cy="900" r="56" fill="none" stroke="hsl(340, 48%, 52%)" stroke-width="6" opacity="0.42"/><circle cx="880" cy="1050" r="57" fill="none" stroke="hsl(353, 48%, 52%)" stroke-width="6" opacity="0.42"/><circle cx="960" cy="0" r="51" fill="none" stroke="hsl(271, 48%, 52%)" stroke-width="6" opacity="0.42"/><circle cx="1040" cy="150" r="52" fill="none" stroke="hsl(284, 48%, 52%)" stroke-width="6" opacity="0.42"/><circle cx="960" cy="300" r="53" fill="none" stroke="hsl(297, 48%, 52%)" stroke-width="6" opacity="0.42"/><circle cx="1040" cy="450" r="54" fill="none" stroke="hsl(310, 48%, 52%)" stroke-width="6" opacity="0.42"/><circle cx="960" cy="600" r="55" fill="none" stroke="hsl(323, 48%, 52%)" stroke-width="6" opacity="0.42"/><circle cx="1040" cy="750" r="56" fill="none" stroke="hsl(336, 48%, 52%)" stroke-width="6" opacity="0.42"/><circle cx="960" cy="900" r="57" fill="none" stroke="hsl(349, 48%, 52%)" stroke-width="6" opacity="0.42"/><circle cx="1040" cy="1050" r="58" fill="none" stroke="hsl(2, 48%, 52%)" stroke-width="6" opacity="0.42"/><circle cx="1120" cy="0" r="52" fill="none" stroke="hsl(280, 48%, 52%)" stroke-width="6" opacity="0.42"/><circle cx="1200" cy="150" r="53" fill="none" stroke="hsl(293, 48%, 52%)" stroke-width="6" opacity="0.42"/><circle cx="1120" cy="300" r="54" fill="none" stroke="hsl(306, 48%, 52%)" stroke-width="6" opacity="0.42"/><circle cx="1200" cy="450" r="55" fill="none" stroke="hsl(319, 48%, 52%)" stroke-width="6" opacity="0.42"/><circle cx="1120" cy="600" r="56" fill="none" stroke="hsl(332, 48%, 52%)" stroke-width="6" opacity="0.42"/><circle cx="1200" cy="750" r="57" fill="none" stroke="hsl(345, 48%, 52%)" stroke-width="6" opacity="0.42"/><circle cx="1120" cy="900" r="58" fill="none" stroke="hsl(358, 48%, 52%)" stroke-width="6" opacity="0.42"/><circle cx="1200" cy="1050" r="59" fill="none" stroke="hsl(11, 48%, 52%)" stroke-width="6" opacity="0.42"/><circle cx="1280" cy="0" r="53" fill="none" stroke="hsl(289, 48%, 52%)" stroke-width="6" opacity="0.42"/><circle cx="1360" cy="150" r="54" fill="none" stroke="hsl(302, 48%, 52%)" stroke-width="6" opacity="0.42"/><circle cx="1280" cy="300" r="55" fill="none" stroke="hsl(315, 48%, 52%)" stroke-width="6" opacity="0.42"/><circle cx="1360" cy="450" r="56" fill="none" stroke="hsl(328, 48%, 52%)" stroke-width="6" opacity="0.42"/><circle cx="1280" cy="600" r="57" fill="none" stroke="hsl(341, 48%, 52%)" stroke-width="6" opacity="0.42"/><circle cx="1360" cy="750" r="58" fill="none" stroke="hsl(354, 48%, 52%)" stroke-width="6" opacity="0.42"/><circle cx="1280" cy="900" r="59" fill="none" stroke="hsl(7, 48%, 52%)" stroke-width="6" opacity="0.42"/><circle cx="1360" cy="1050" r="38" fill="none" stroke="hsl(20, 48%, 52%)" stroke-width="6" opacity="0.42"/><circle cx="1440" cy="0" r="54" fill="none" stroke="hsl(298, 48%, 52%)" stroke-width="6" opacity="0.42"/><circle cx="1520" cy="150" r="55" fill="none" stroke="hsl(311, 48%, 52%)" stroke-width="6" opacity="0.42"/><circle cx="1440" cy="300" r="56" fill="none" stroke="hsl(324, 48%, 52%)" stroke-width="6" opacity="0.42"/><circle cx="1520" cy="450" r="57" fill="none" stroke="hsl(337, 48%, 52%)" stroke-width="6" opacity="0.42"/><circle cx="1440" cy="600" r="58" fill="none" stroke="hsl(350, 48%, 52%)" stroke-width="6" opacity="0.42"/><circle cx="1520" cy="750" r="59" fill="none" stroke="hsl(3, 48%, 52%)" stroke-width="6" opacity="0.42"/><circle cx="1440" cy="900" r="38" fill="none" stroke="hsl(16, 48%, 52%)" stroke-width="6" opacity="0.42"/><circle cx="1520" cy="1050" r="39" fill="none" stroke="hsl(29, 48%, 52%)" stroke-width="6" opacity="0.42"/><circle cx="1600" cy="0" r="55" fill="none" stroke="hsl(307, 48%, 52%)" stroke-width="6" opacity="0.42"/><circle cx="1680" cy="150" r="56" fill="none" stroke="hsl(320, 48%, 52%)" stroke-width="6" opacity="0.42"/><circle cx="1600" cy="300" r="57" fill="none" stroke="hsl(333, 48%, 52%)" stroke-width="6" opacity="0.42"/><circle cx="1680" cy="450" r="58" fill="none" stroke="hsl(346, 48%, 52%)" stroke-width="6" opacity="0.42"/><circle cx="1600" cy="600" r="59" fill="none" stroke="hsl(359, 48%, 52%)" stroke-width="6" opacity="0.42"/><circle cx="1680" cy="750" r="38" fill="none" stroke="hsl(12, 48%, 52%)" stroke-width="6" opacity="0.42"/><circle cx="1600" cy="900" r="39" fill="none" stroke="hsl(25, 48%, 52%)" stroke-width="6" opacity="0.42"/><circle cx="1680" cy="1050" r="40" fill="none" stroke="hsl(38, 48%, 52%)" stroke-width="6" opacity="0.42"/><circle cx="1760" cy="0" r="56" fill="none" stroke="hsl(316, 48%, 52%)" stroke-width="6" opacity="0.42"/><circle cx="1840" cy="150" r="57" fill="none" stroke="hsl(329, 48%, 52%)" stroke-width="6" opacity="0.42"/><circle cx="1760" cy="300" r="58" fill="none" stroke="hsl(342, 48%, 52%)" stroke-width="6" opacity="0.42"/><circle cx="1840" cy="450" r="59" fill="none" stroke="hsl(355, 48%, 52%)" stroke-width="6" opacity="0.42"/><circle cx="1760" cy="600" r="38" fill="none" stroke="hsl(8, 48%, 52%)" stroke-width="6" opacity="0.42"/><circle cx="1840" cy="750" r="39" fill="none" stroke="hsl(21, 48%, 52%)" stroke-width="6" opacity="0.42"/><circle cx="1760" cy="900" r="40" fill="none" stroke="hsl(34, 48%, 52%)" stroke-width="6" opacity="0.42"/><circle cx="1840" cy="1050" r="41" fill="none" stroke="hsl(47, 48%, 52%)" stroke-width="6" opacity="0.42"/><circle cx="1920" cy="0" r="57" fill="none" stroke="hsl(325, 48%, 52%)" stroke-width="6" opacity="0.42"/><circle cx="2000" cy="150" r="58" fill="none" stroke="hsl(338, 48%, 52%)" stroke-width="6" opacity="0.42"/><circle cx="1920" cy="300" r="59" fill="none" stroke="hsl(351, 48%, 52%)" stroke-width="6" opacity="0.42"/><circle cx="2000" cy="450" r="38" fill="none" stroke="hsl(4, 48%, 52%)" stroke-width="6" opacity="0.42"/><circle cx="1920" cy="600" r="39" fill="none" stroke="hsl(17, 48%, 52%)" stroke-width="6" opacity="0.42"/><circle cx="2000" cy="750" r="40" fill="none" stroke="hsl(30, 48%, 52%)" stroke-width="6" opacity="0.42"/><circle cx="1920" cy="900" r="41" fill="none" stroke="hsl(43, 48%, 52%)" stroke-width="6" opacity="0.42"/><circle cx="2000" cy="1050" r="42" fill="none" stroke="hsl(56, 48%, 52%)" stroke-width="6" opacity="0.42"/>
</svg>
