<svg xmlns="http://www.w3.org/2000/svg" width="1920" height="1080" viewBox="0 0 1920 1080">
  <rect width="1920" height="1080" fill="hsl(0, 44%, 93%)"/>
  <circle cx="0" cy="0" r="38" fill="none" stroke="hsl(0, 48%, 52%)" stroke-width="6" opacity="0.42"/><circle cx="80" cy="150" r="39" fill="none" stroke="hsl(13, 48%, 52%)" stroke-width="6" opacity="0.42"/><circle cx="0" cy="300" r="40" fill="none" stroke="hsl(26, 48%, 52%)" stroke-width="6" opacity="0.42"/><circle cx="80" cy="450" r="41" fill="none" stroke="hsl(39, 48%, 52%)" stroke-width="6" opacity="0.42"/><circle cx="0" cy="600" r="42" fill="none" stroke="hsl(52, 48%, 52%)" stroke-width="6" opacity="0.42"/><circle cx="80" cy="750" r="43" fill="none" stroke="hsl(65, 48%, 52%)" stroke-width="6" opacity="0.42"/><circle cx="0" cy="900" r="44" fill="none" stroke="hsl(78, 48%, 52%)" stroke-width="6" opacity="0.42"/><circle cx="80" cy="1050" r="45" fill="none" stroke="hsl(91, 48%, 52%)" stroke-width="6" opacity="0.42"/><circle cx="160" cy="0" r="39" fill="none" stroke="hsl(9, 48%, 52%)" stroke-width="6" opacity="0.42"/><circle cx="240" cy="150" r="40" fill="none" stroke="hsl(22, 48%, 52%)" stroke-width="6" opacity="0.42"/><circle cx="160" cy="300" r="41" fill="none" stroke="hsl(35, 48%, 52%)" stroke-width="6" opacity="0.42"/><circle cx="240" cy="450" r="42" fill="none" stroke="hsl(48, 48%, 52%)" stroke-width="6" opacity="0.42"/><circle cx="160" cy="600" r="43" fill="none" stroke="hsl(61, 48%, 52%)" stroke-width="6" opacity="0.42"/><circle cx="240" cy="750" r="44" fill="none" stroke="hsl(74, 48%, 52%)" stroke-width="6" opacity="0.42"/><circle cx="160" cy="900" r="45" fill="none" stroke="hsl(87, 48%, 52%)" stroke-width="6" opacity="0.42"/><circle cx="240" cy="1050" r="46" fill="none" stroke="hsl(100, 48%, 52%)" stroke-width="6" opacity="0.42"/><circle cx="320" cy="0" r="40" fill="none" stroke="hsl(18, 48%, 52%)" stroke-width="6" opacity="0.42"/><circle cx="400" cy="150" r="41" fill="none" stroke="hsl(31, 48%, 52%)" stroke-width="6" opacity="0.42"/><circle cx="320" cy="300" r="42" fill="none" stroke="hsl(44, 48%, 52%)" stroke-width="6" opacity="0.42"/><circle cx="400" cy="450" r="43" fill="none" stroke="hsl(57, 48%, 52%)" stroke-width="6" opacity="0.42"/><circle cx="320" cy="600" r="44" fill="none" stroke="hsl(70, 48%, 52%)" stroke-width="6" opacity="0.42"/><circle cx="400" cy="750" r="45" fill="none" stroke="hsl(83, 48%, 52%)" stroke-width="6" opacity="0.42"/><circle cx="320" cy="900" r="46" fill="none" stroke="hsl(96, 48%, 52%)" stroke-width="6" opacity="0.42"/><circle cx="400" cy="1050" r="47" fill="none" stroke="hsl(109, 48%, 52%)" stroke-width="6" opacity="0.42"/><circle cx="480" cy="0" r="41" fill="none" stroke="hsl(27, 48%, 52%)" stroke-width="6" opacity="0.42"/><circle cx="560" cy="150" r="42" fill="none" stroke="hsl(40, 48%, 52%)" stroke-width="6" opacity="0.42"/><circle cx="480" cy="300" r="43" fill="none" stroke="hsl(53, 48%, 52%)" stroke-width="6" opacity="0.42"/><circle cx="560" cy="450" r="44" fill="none" stroke="hsl(66, 48%, 52%)" stroke-width="6" opacity="0.42"/><circle cx="480" cy="600" r="45" fill="none" stroke="hsl(79, 48%, 52%)" stroke-width="6" opacity="0.42"/><circle cx="560" cy="750" r="46" fill="none" stroke="hsl(92, 48%, 52%)" stroke-width="6" opacity="0.42"/><circle cx="480" cy="900" r="47" fill="none" stroke="hsl(105, 48%, 52%)" stroke-width="6" opacity="0.42"/><circle cx="560" cy="1050" r="48" fill="none" stroke="hsl(118, 48%, 52%)" stroke-width="6" opacity="0.42"/><circle cx="640" cy="0" r="42" fill="none" stroke="hsl(36, 48%, 52%)" stroke-width="6" opacity="0.42"/><circle cx="720" cy="150" r="43" fill="none" stroke="hsl(49, 48%, 52%)" stroke-width="6" opacity="0.42"/><circle cx="640" cy="300" r="44" fill="none" stroke="hsl(62, 48%, 52%)" stroke-width="6" opacity="0.42"/><circle cx="720" cy="450" r="45" fill="none" stroke="hsl(75, 48%, 52%)" stroke-width="6" opacity="0.42"/><circle cx="640" cy="600" r="46" fill="none" stroke="hsl(88, 48%, 52%)" stroke-width="6" opacity="0.42"/><circle cx="720" cy="750" r="47" fill="none" stroke="hsl(101, 48%, 52%)" stroke-width="6" opacity="0.42"/><circle cx="640" cy="900" r="48" fill="none" stroke="hsl(114, 48%, 52%)" stroke-width="6" opacity="0.42"/><circle cx="720" cy="1050" r="49" fill="none" stroke="hsl(127, 48%, 52%)" stroke-width="6" opacity="0.42"/><circle cx="800" cy="0" r="43" fill="none" stroke="hsl(45, 48%, 52%)" stroke-width="6" opacity="0.42"/><circle cx="880" cy="150" r="44" fill="none" stroke="hsl(58, 48%, 52%)" stroke-width="6" opacity="0.42"/><circle cx="800" cy="300" r="45" fill="none" stroke="hsl(71, 48%, 52%)" stroke-width="6" opacity="0.42"/><circle cx="880" cy="450" r="46" fill="none" stroke="hsl(84, 48%, 52%)" stroke-width="6" opacity="0.42"/><circle cx="800" cy="600" r="47" fill="none" stroke="hsl(97, 48%, 52%)" stroke-width="6" opacity="0.42"/><circle cx="880" cy="750" r="48" fill="none" stroke="hsl(110, 48%, 52%)" stroke-width="6" opacity="0.42"/><circle cx="800" cy="900" r="49" fill="none" stroke="hsl(123, 48%, 52%)" stroke-width="6" opacity="0.42"/><circle cx="880" cy="1050" r="50" fill="none" stroke="hsl(136, 48%, 52%)" stroke-width="6" opacity="0.42"/><circle cx="960" cy="0" r="44" fill="none" stroke="hsl(54, 48%, 52%)" stroke-width="6" opacity="0.42"/><circle cx="1040" cy="150" r="45" fill="none" stroke="hsl(67, 48%, 52%)" stroke-width="6" opacity="0.42"/><circle cx="960" cy="300" r="46" fill="none" stroke="hsl(80, 48%, 52%)" stroke-width="6" opacity="0.42"/><circle cx="1040" cy="450" r="47" fill="none" stroke="hsl(93, 48%, 52%)" stroke-width="6" opacity="0.42"/><circle cx="960" cy="600" r="48" fill="none" stroke="hsl(106, 48%, 52%)" stroke-width="6" opacity="0.42"/><circle cx="1040" cy="750" r="49" fill="none" stroke="hsl(119, 48%, 52%)" stroke-width="6" opacity="0.42"/><circle cx="960" cy="900" r="50" fill="none" stroke="hsl(132, 48%, 52%)" stroke-width="6" opacity="0.42"/><circle cx="1040" cy="1050" r="51" fill="none" stroke="hsl(145, 48%, 52%)" stroke-width="6" opacity="0.42"/><circle cx="1120" cy="0" r="45" fill="none" stroke="hsl(63, 48%, 52%)" stroke-width="6" opacity="0.42"/><circle cx="1200" cy="150" r="46" fill="none" stroke="hsl(76, 48%, 52%)" stroke-width="6" opacity="0.42"/><circle cx="1120" cy="300" r="47" fill="none" stroke="hsl(89, 48%, 52%)" stroke-width="6" opacity="0.42"/><circle cx="1200" cy="450" r="48" fill="none" stroke="hsl(102, 48%, 52%)" stroke-width="6" opacity="0.42"/><circle cx="1120" cy="600" r="49" fill="none" stroke="hsl(115, 48%, 52%)" stroke-width="6" opacity="0.42"/><circle cx="1200" cy="750" r="50" fill="none" stroke="hsl(128, 48%, 52%)" stroke-width="6" opacity="0.42"/><circle cx="1120" cy="900" r="51" fill="none" stroke="hsl(141, 48%, 52%)" stroke-width="6" opacity="0.42"/><circle cx="1200" cy="1050" r="52" fill="none" stroke="hsl(154, 48%, 52%)" stroke-width="6" opacity="0.42"/><circle cx="1280" cy="0" r="46" fill="none" stroke="hsl(72, 48%, 52%)" stroke-width="6" opacity="0.42"/><circle cx="1360" cy="150" r="47" fill="none" stroke="hsl(85, 48%, 52%)" stroke-width="6" opacity="0.42"/><circle cx="1280" cy="300" r="48" fill="none" stroke="hsl(98, 48%, 52%)" stroke-width="6" opacity="0.42"/><circle cx="1360" cy="450" r="49" fill="none" stroke="hsl(111, 48%, 52%)" stroke-width="6" opacity="0.42"/><circle cx="1280" cy="600" r="50" fill="none" stroke="hsl(124, 48%, 52%)" stroke-width="6" opacity="0.42"/><circle cx="1360" cy="750" r="51" fill="none" stroke="hsl(137, 48%, 52%)" stroke-width="6" opacity="0.42"/><circle cx="1280" cy="900" r="52" fill="none" stroke="hsl(150, 48%, 52%)" stroke-width="6" opacity="0.42"/><circle cx="1360" cy="1050" r="53" fill="none" stroke="hsl(163, 48%, 52%)" stroke-width="6" opacity="0.42"/><circle cx="1440" cy="0" r="47" fill="none" stroke="hsl(81, 48%, 52%)" stroke-width="6" opacity="0.42"/><circle cx="1520" cy="150" r="48" fill="none" stroke="hsl(94, 48%, 52%)" stroke-width="6" opacity="0.42"/><circle cx="1440" cy="300" r="49" fill="none" stroke="hsl(107, 48%, 52%)" stroke-width="6" opacity="0.42"/><circle cx="1520" cy="450" r="50" fill="none" stroke="hsl(120, 48%, 52%)" stroke-width="6" opacity="0.42"/><circle cx="1440" cy="600" r="51" fill="none" stroke="hsl(133, 48%, 52%)" stroke-width="6" opacity="0.42"/><circle cx="1520" cy="750" r="52" fill="none" stroke="hsl(146, 48%, 52%)" stroke-width="6" opacity="0.42"/><circle cx="1440" cy="900" r="53" fill="none" stroke="hsl(159, 48%, 52%)" stroke-width="6" opacity="0.42"/><circle cx="1520" cy="1050" r="54" fill="none" stroke="hsl(172, 48%, 52%)" stroke-width="6" opacity="0.42"/><circle cx="1600" cy="0" r="48" fill="none" stroke="hsl(90, 48%, 52%)" stroke-width="6" opacity="0.42"/><circle cx="1680" cy="150" r="49" fill="none" stroke="hsl(103, 48%, 52%)" stroke-width="6" opacity="0.42"/><circle cx="1600" cy="300" r="50" fill="none" stroke="hsl(116, 48%, 52%)" stroke-width="6" opacity="0.42"/><circle cx="1680" cy="450" r="51" fill="none" stroke="hsl(129, 48%, 52%)" stroke-width="6" opacity="0.42"/><circle cx="1600" cy="600" r="52" fill="none" stroke="hsl(142, 48%, 52%)" stroke-width="6" opacity="0.42"/><circle cx="1680" cy="750" r="53" fill="none" stroke="hsl(155, 48%, 52%)" stroke-width="6" opacity="0.42"/><circle cx="1600" cy="900" r="54" fill="none" stroke="hsl(168, 48%, 52%)" stroke-width="6" opacity="0.42"/><circle cx="1680" cy="1050" r="55" fill="none" stroke="hsl(181, 48%, 52%)" stroke-width="6" opacity="0.42"/><circle cx="1760" cy="0" r="49" fill="none" stroke="hsl(99, 48%, 52%)" stroke-width="6" opacity="0.42"/><circle cx="1840" cy="150" r="50" fill="none" stroke="hsl(112, 48%, 52%)" stroke-width="6" opacity="0.42"/><circle cx="1760" cy="300" r="51" fill="none" stroke="hsl(125, 48%, 52%)" stroke-width="6" opacity="0.42"/><circle cx="1840" cy="450" r="52" fill="none" stroke="hsl(138, 48%, 52%)" stroke-width="6" opacity="0.42"/><circle cx="1760" cy="600" r="53" fill="none" stroke="hsl(151, 48%, 52%)" stroke-width="6" opacity="0.42"/><circle cx="1840" cy="750" r="54" fill="none" stroke="hsl(164, 48%, 52%)" stroke-width="6" opacity="0.42"/><circle cx="1760" cy="900" r="55" fill="none" stroke="hsl(177, 48%, 52%)" stroke-width="6" opacity="0.42"/><circle cx="1840" cy="1050" r="56" fill="none" stroke="hsl(190, 48%, 52%)" stroke-width="6" opacity="0.42"/><circle cx="1920" cy="0" r="50" fill="none" stroke="hsl(108, 48%, 52%)" stroke-width="6" opacity="0.42"/><circle cx="2000" cy="150" r="51" fill="none" stroke="hsl(121, 48%, 52%)" stroke-width="6" opacity="0.42"/><circle cx="1920" cy="300" r="52" fill="none" stroke="hsl(134, 48%, 52%)" stroke-width="6" opacity="0.42"/><circle cx="2000" cy="450" r="53" fill="none" stroke="hsl(147, 48%, 52%)" stroke-width="6" opacity="0.42"/><circle cx="1920" cy="600" r="54" fill="none" stroke="hsl(160, 48%, 52%)" stroke-width="6" opacity="0.42"/><circle cx="2000" cy="750" r="55" fill="none" stroke="hsl(173, 48%, 52%)" stroke-width="6" opacity="0.42"/><circle cx="1920" cy="900" r="56" fill="none" stroke="hsl(186, 48%, 52%)" stroke-width="6" opacity="0.42"/><circle cx="2000" cy="1050" r="57" fill="none" stroke="hsl(199, 48%, 52%)" stroke-width="6" opacity="0.42"/>
</svg>
